<svg xmlns="http://www.w3.org/2000/svg" width="49" height="49" viewBox="0 0 49 49" fill="none">
<path d="M45.5 2.23438V20.2344H3.5V2.23438H1.5V46.2344H3.5V42.2344H45.5V46.2344H47.5V2.23438H45.5ZM3.5 40.2344V22.2344H45.5V40.2344H3.5Z" fill="#0E6655"/>
<path d="M21.5 6.23438H18.5C17.95 6.23438 17.5 6.68437 17.5 7.23438V15.2344L15.1 13.4344C14.92 13.3044 14.71 13.2344 14.5 13.2344C14.29 13.2344 14.08 13.3044 13.9 13.4344L11.5 15.2344V7.23438C11.5 6.68437 11.05 6.23438 10.5 6.23438H7.5C6.95 6.23438 6.5 6.68437 6.5 7.23438V19.2344C6.5 19.7844 6.95 20.2344 7.5 20.2344H21.5C22.05 20.2344 22.5 19.7844 22.5 19.2344V7.23438C22.5 6.68437 22.05 6.23438 21.5 6.23438Z" fill="#F2731D"/>
<path d="M41.5 6.23438H38.5C37.95 6.23438 37.5 6.68437 37.5 7.23438V15.2344L35.1 13.4344C34.92 13.3044 34.71 13.2344 34.5 13.2344C34.29 13.2344 34.08 13.3044 33.9 13.4344L31.5 15.2344V7.23438C31.5 6.68437 31.05 6.23438 30.5 6.23438H27.5C26.95 6.23438 26.5 6.68437 26.5 7.23438V19.2344C26.5 19.7844 26.95 20.2344 27.5 20.2344H41.5C42.05 20.2344 42.5 19.7844 42.5 19.2344V7.23438C42.5 6.68437 42.05 6.23438 41.5 6.23438Z" fill="#F2731D"/>
<path d="M21.5 26.2344H18.5C17.95 26.2344 17.5 26.6844 17.5 27.2344V35.2344L15.1 33.4344C14.92 33.3044 14.71 33.2344 14.5 33.2344C14.29 33.2344 14.08 33.3044 13.9 33.4344L11.5 35.2344V27.2344C11.5 26.6844 11.05 26.2344 10.5 26.2344H7.5C6.95 26.2344 6.5 26.6844 6.5 27.2344V39.2344C6.5 39.7844 6.95 40.2344 7.5 40.2344H21.5C22.05 40.2344 22.5 39.7844 22.5 39.2344V27.2344C22.5 26.6844 22.05 26.2344 21.5 26.2344Z" fill="#F2731D"/>
<path d="M41.5 26.2344H38.5C37.95 26.2344 37.5 26.6844 37.5 27.2344V35.2344L35.1 33.4344C34.92 33.3044 34.71 33.2344 34.5 33.2344C34.29 33.2344 34.08 33.3044 33.9 33.4344L31.5 35.2344V27.2344C31.5 26.6844 31.05 26.2344 30.5 26.2344H27.5C26.95 26.2344 26.5 26.6844 26.5 27.2344V39.2344C26.5 39.7844 26.95 40.2344 27.5 40.2344H41.5C42.05 40.2344 42.5 39.7844 42.5 39.2344V27.2344C42.5 26.6844 42.05 26.2344 41.5 26.2344Z" fill="#F2731D"/>
</svg>